<svg width="25" height="25" viewBox="0 0 500 500" fill="none" xmlns="http://www.w3.org/2000/svg">
<g clip-path="url(#clip0_14089_919)">
<path d="M68.397 227.917C62.5449 233.777 59.2578 241.719 59.2578 250.001C59.2578 258.282 62.5449 266.225 68.397 272.084L186.23 389.959C189.133 392.862 192.579 395.164 196.372 396.735C200.164 398.306 204.229 399.115 208.334 399.115C212.44 399.115 216.505 398.306 220.297 396.735C224.09 395.164 227.536 392.862 230.439 389.959C233.341 387.056 235.644 383.61 237.215 379.818C238.786 376.025 239.594 371.96 239.594 367.855C239.594 363.75 238.786 359.685 237.215 355.892C235.644 352.1 233.341 348.653 230.439 345.751L165.939 281.251H406.251C414.539 281.251 422.488 277.958 428.348 272.098C434.209 266.237 437.501 258.289 437.501 250.001C437.501 241.713 434.209 233.764 428.348 227.904C422.488 222.043 414.539 218.751 406.251 218.751H165.939L230.439 154.251C236.298 148.388 239.589 140.438 239.587 132.15C239.585 123.861 236.291 115.912 230.428 110.053C224.566 104.193 216.616 100.902 208.327 100.904C200.038 100.906 192.09 104.201 186.23 110.063L68.397 227.917Z" fill="white"/>
</g>
<defs>
<clipPath id="clip0_14089_919">
<rect width="500" height="500" fill="white"/>
</clipPath>
</defs>
</svg>
